<?xml version="1.0" standalone="no"?>
<!DOCTYPE svg PUBLIC "-//W3C//DTD SVG 20010904//EN"
 "http://www.w3.org/TR/2001/REC-SVG-20010904/DTD/svg10.dtd">
<svg version="1.0" xmlns="http://www.w3.org/2000/svg"
 width="300.000000pt" height="208.000000pt" viewBox="0 0 300.000000 208.000000"
 preserveAspectRatio="xMidYMid meet">
<metadata>
Created by potrace 1.10, written by Peter Selinger 2001-2011
</metadata>
<g transform="translate(0.000000,208.000000) scale(0.100000,-0.100000)"
fill="#000000" stroke="none">
<path d="M2855 2071 c-6 -5 -46 -24 -90 -41 -85 -35 -125 -63 -125 -90 0 -8
13 -31 30 -50 16 -19 29 -40 30 -46 0 -20 -422 -425 -580 -555 -152 -125 -461
-349 -482 -349 -5 0 -2 10 6 22 13 19 16 60 16 248 0 282 6 270 -147 270 -98
0 -102 -1 -123 -27 -20 -26 -21 -34 -18 -311 l3 -284 27 -23 c25 -21 26 -24
10 -38 -16 -13 -139 -87 -146 -87 -2 0 -55 -29 -117 -65 -239 -138 -660 -332
-943 -435 -138 -50 -175 -75 -157 -107 10 -19 8 -22 -17 -25 -19 -2 -28 -9
-30 -26 l-3 -23 423 1 c377 1 423 -1 420 -15 -2 -9 5 -15 18 -15 24 0 26 17 4
48 -15 22 -20 22 -232 23 -119 1 -280 4 -357 8 l-140 6 120 34 c341 96 1005
390 1355 601 397 240 752 536 1079 903 107 120 115 127 135 114 66 -43 63 -43
89 -19 15 14 37 61 56 120 26 80 31 111 29 168 l-3 69 -65 3 c-36 1 -70 -1
-75 -7z m135 -12 c0 -9 -47 -170 -93 -321 -1 -4 -23 11 -49 33 l-48 41 -27
-34 c-361 -434 -802 -807 -1278 -1079 -221 -126 -754 -371 -1012 -465 -144
-52 -401 -126 -423 -122 -8 2 55 27 140 57 622 214 1447 674 1930 1076 145
121 468 425 564 530 l73 80 -53 45 -52 45 152 62 c160 65 176 70 176 52z
m-1367 -846 l-2 -228 -102 -67 c-57 -38 -104 -68 -106 -68 -2 0 -3 133 -3 295
l0 295 108 0 107 0 -2 -227z"/>
<path d="M732 1797 c-20 -21 -22 -34 -22 -123 0 -92 2 -102 23 -122 l23 -22
775 0 776 0 21 23 c20 21 22 34 22 123 0 92 -2 102 -23 122 l-23 22 -775 0
-776 0 -21 -23z m1578 -122 l0 -105 -780 0 -780 0 0 105 0 105 780 0 780 0 0
-105z"/>
<path d="M901 1432 c-87 -90 -201 -233 -201 -251 0 -10 8 -25 18 -34 16 -14
43 -17 171 -17 84 0 160 4 170 9 19 11 182 195 219 248 27 38 28 55 4 76 -16
14 -44 17 -177 17 l-159 0 -45 -48z m328 -50 c-30 -32 -83 -93 -119 -135 l-64
-77 -164 0 -164 0 53 58 c30 32 83 93 119 135 l65 77 164 0 163 0 -53 -58z"/>
<path d="M1734 1459 c-17 -19 -19 -38 -19 -196 0 -171 0 -175 23 -194 22 -17
26 -17 54 -3 49 25 257 184 268 204 5 10 10 27 10 38 0 23 -70 105 -124 144
-35 25 -47 28 -116 28 -65 0 -80 -3 -96 -21z m241 -89 c42 -42 65 -73 60 -78
-6 -5 -66 -51 -135 -102 -69 -51 -131 -97 -137 -103 -10 -7 -13 28 -13 172 l0
181 78 0 78 0 69 -70z"/>
<path d="M1183 1208 c-41 -40 -81 -85 -89 -100 -11 -20 -14 -73 -14 -211 0
-173 1 -186 21 -211 26 -33 43 -31 128 19 94 55 91 46 91 305 0 214 -1 227
-20 248 -12 12 -26 22 -31 22 -6 0 -45 -33 -86 -72z m102 -190 l0 -231 -80
-48 -80 -47 -3 201 -2 201 77 78 c43 43 80 78 83 78 3 0 5 -104 5 -232z"/>
<path d="M1503 625 c-45 -25 -93 -59 -107 -76 l-26 -31 0 -236 c0 -130 3 -247
6 -259 6 -22 10 -23 140 -23 l133 0 6 42 c3 24 5 165 3 314 -3 251 -4 274 -22
293 -11 12 -26 21 -35 21 -9 0 -53 -21 -98 -45z m117 -300 l0 -315 -105 0
-105 0 0 258 0 258 98 56 c53 31 100 56 105 57 4 1 7 -141 7 -314z"/>
<path d="M1194 459 c-109 -57 -104 -44 -104 -266 l0 -193 115 0 115 0 0 223
c0 288 -6 300 -126 236z m91 -224 l0 -225 -82 0 -83 0 0 183 0 182 78 42 c42
23 79 42 82 42 3 1 5 -100 5 -224z"/>
</g>
</svg>
